# xmcd
#
# Track frame offsets: 
#        150
#        20485
#        33158
#        48973
#        69478
#        81055
#        105822
#        119137
#        140125
#        147123
#        179526
#
# Disc length: 2397 seconds
#
# Revision: 0
# Processed by: cddbd v1.4PL0 Copyright (c) Steve Scherf et al.
# Submitted via: ExactAudioCopy v0.95a3
#
DISCID=94095b0b
DTITLE=Walter Parks - Swamp Cabbage
DYEAR=2003
DGENRE=Blues
TTITLE0=The Lid
TTITLE1=The Dipstick Rag
TTITLE2=If A Thing Feels Right
TTITLE3=Tallahassee
TTITLE4=Silver Meteor
TTITLE5=More Booty With Buddha
TTITLE6=The Hodown Town (Katie)
TTITLE7=Southern Hospitality
TTITLE8=Jersey City
TTITLE9=Kilowatt
TTITLE10=(end)
EXTD=
EXTT0=
EXTT1=
EXTT2=
EXTT3=
EXTT4=
EXTT5=
EXTT6=
EXTT7=
EXTT8=
EXTT9=
EXTT10=
PLAYORDER=
